<?xml version="1.0" encoding="UTF-8"?>
<svg version="1.1" xmlns="http://www.w3.org/2000/svg" width="512" height="512">
<path d="M0 0 C2.14892578 1.57641602 2.14892578 1.57641602 3.9453125 3.75390625 C4.62311768 4.52742432 5.30092285 5.30094238 5.99926758 6.09790039 C6.70075928 6.91121826 7.40225098 7.72453613 8.125 8.5625 C13.4804699 14.59444377 13.4804699 14.59444377 20.57421875 17.90625 C23.85154639 17.55835515 26.82588291 16.87462735 30 16 C50.53219231 14.25318866 74.33609878 20.24758674 90.546875 33.23974609 C94.20008013 36.32891986 97.61549097 39.62029851 101 43 C102.11375 44.09634766 102.11375 44.09634766 103.25 45.21484375 C119.34432632 62.09502584 125.08212927 85.34164562 125.203125 108.05859375 C125 111 125 111 124.171875 114.03515625 C123.26673543 117.92051601 123.00935569 120.09293302 124 124 C127.16463312 128.13594672 130.96785665 131.60742351 134.90209961 135.00073242 C135.67561768 135.6785376 136.44913574 136.35634277 137.24609375 137.0546875 C137.96466553 137.64749512 138.6832373 138.24030273 139.42358398 138.85107422 C141.76138432 142.03789759 141.42954514 144.11348365 141 148 C140.22586349 150.86887063 139.18316904 153.59146905 138.078125 156.34765625 C137.77686707 157.12257919 137.47560913 157.89750214 137.16522217 158.69590759 C136.52856052 160.32593918 135.88613933 161.95373169 135.23828125 163.5793457 C134.25365989 166.05330416 133.28958637 168.53454024 132.328125 171.01757812 C131.70432787 172.60724337 131.07936617 174.19645223 130.453125 175.78515625 C130.16753723 176.51968521 129.88194946 177.25421417 129.58770752 178.01100159 C127.21679401 183.91905506 124.37977932 188.96268961 119.6875 193.375 C117.28019574 195.71120244 115.00181709 198.08325626 112.8125 200.625 C109.62174248 204.32714303 106.32432818 207.91838038 103 211.5 C99.78825847 214.96272791 96.58896567 218.42649069 93.5 222 C90.44844834 225.52789143 87.29452172 228.95349146 84.125 232.375 C76.48144007 240.61423304 76.48144007 240.61423304 69 249 C67.8553125 250.19109375 67.8553125 250.19109375 66.6875 251.40625 C64.75293947 253.8511061 64.75293947 253.8511061 65.04296875 256.625 C66.11635934 260.41034476 67.21806265 264.18373123 68.37451172 267.94458008 C71.20240724 277.1562179 73.67379753 286.32340558 75.375 295.8125 C75.53009033 296.67552734 75.68518066 297.53855469 75.8449707 298.42773438 C77.40044901 307.60993112 78.19753261 316.81273321 78.1875 326.125 C78.1862915 327.33760498 78.1862915 327.33760498 78.18505859 328.57470703 C78.06869964 340.27220416 76.33941311 351.76959051 74.26953125 363.265625 C73.87051428 365.94232453 73.87051428 365.94232453 74.46826172 368.3112793 C75.4622972 373.33759368 75.26933218 378.4543074 75.3125 383.5625 C75.35600586 385.23795898 75.35600586 385.23795898 75.40039062 386.94726562 C75.49462306 399.4511845 71.9608105 410.44310844 63.5 419.75 C62.675 420.4925 61.85 421.235 61 422 C60.2575 422.680625 59.515 423.36125 58.75 424.0625 C48.38718022 431.36357757 36.8369782 432.34426485 24.5 432.8125 C23.32824219 432.87630859 22.15648437 432.94011719 20.94921875 433.00585938 C12.75361859 433.33239563 6.41118049 432.50635255 -0.75 428.4375 C-10.23522451 418.16184011 -11.75014809 403.89036766 -11.34765625 390.5390625 C-10.80451213 381.08952295 -6.8177955 373.34496681 -1 366 C-0.278125 365.360625 0.44375 364.72125 1.1875 364.0625 C3.20018302 362.15711615 3.20018302 362.15711615 3.3125 359.65234375 C1.79151678 343.90488549 1.79151678 343.90488549 -3 329 C-5.23190252 331.37244143 -7.46000925 333.74841646 -9.6875 336.125 C-10.31333984 336.79015625 -10.93917969 337.4553125 -11.58398438 338.140625 C-13.4020408 340.08242349 -15.20372101 342.03805964 -17 344 C-17.50595703 344.53898926 -18.01191406 345.07797852 -18.53320312 345.63330078 C-21.47108007 348.90502738 -22.66688395 351.26702426 -23.125 355.625 C-23.26550781 356.759375 -23.40601563 357.89375 -23.55078125 359.0625 C-23.69902344 360.361875 -23.84726562 361.66125 -24 363 C-26.2354232 380.51779681 -28.64899365 398.66636055 -38 414 C-38.56460938 414.93199219 -38.56460938 414.93199219 -39.140625 415.8828125 C-42.93703121 421.20312825 -49.23032155 424.33713605 -55.5546875 425.44921875 C-62.56943826 425.76608444 -68.56762744 423.86257158 -73.9765625 419.3515625 C-77.28398596 416.12858389 -80.13698442 412.62068998 -83 409 C-83.54527344 409.95519531 -84.09054687 410.91039062 -84.65234375 411.89453125 C-98.58201155 435.93272982 -118.12304419 455.47655117 -145.3125 463.375 C-159.58810497 466.73921973 -173.83728125 467.31588678 -188.46044922 466.75097656 C-194.96954565 466.59909418 -198.79186074 466.96598785 -204 471 C-205.99145891 473.05729227 -207.69020231 475.25055166 -209.375 477.5625 C-210.3219128 478.81456192 -211.26984372 480.06585446 -212.21875 481.31640625 C-212.68410156 481.93660645 -213.14945313 482.55680664 -213.62890625 483.19580078 C-216.34472778 486.76950468 -219.22130249 490.20977805 -222.08203125 493.66796875 C-223.20245538 495.0302767 -224.31053658 496.40326018 -225.38671875 497.80078125 C-231.25779678 505.34931015 -239.76310595 511.21764635 -249.33203125 512.41796875 C-260.3455817 512.85946536 -266.94458314 509.78311772 -275.25 502.8125 C-284.49983017 494.07090226 -289.73436802 482.70108235 -290.203125 469.96875 C-290.56604868 449.41762226 -285.49505187 429.86855346 -272 414 C-264.06297555 406.53163795 -252.31184014 403.57231148 -242.2578125 399.90234375 C-221.91256604 392.44533484 -202.69802728 384.4359567 -187 369 C-186.30003906 368.31292969 -185.60007813 367.62585938 -184.87890625 366.91796875 C-168.07500028 349.26240283 -164.38611052 326.30265382 -162 303 C-184.91064625 305.30426465 -207.2393548 309.05762926 -225 325 C-225.79792969 325.70511719 -226.59585938 326.41023438 -227.41796875 327.13671875 C-245.03913994 343.66510413 -252.95018561 366.07834634 -260.70068359 388.33740234 C-266.95706126 406.1763026 -273.91274712 415.63536431 -291.125 424.1875 C-307.72486453 431.49771189 -327.64553479 434.54511259 -345 428 C-356.36187134 423.15723516 -364.81734377 415.56862873 -369.95703125 404.23828125 C-372.62847823 395.94378858 -372.07978534 388.41311655 -368.375 380.5625 C-363.11050589 371.32825975 -356.31324348 365.52667066 -348 359 C-346.79555339 358.05210815 -345.59112704 357.10419055 -344.38671875 356.15625 C-342.5759983 354.73218391 -340.76415194 353.30974722 -338.94726562 351.89355469 C-337.29280222 350.60238308 -335.64609385 349.30181602 -334 348 C-333.44521973 347.57138672 -332.89043945 347.14277344 -332.31884766 346.70117188 C-329.34162116 344.33815054 -327.29065467 342.58172464 -326 339 C-325.80991747 336.27814894 -325.7229645 333.65105007 -325.7265625 330.9296875 C-325.70622549 329.29296251 -325.68537402 327.65624384 -325.6640625 326.01953125 C-325.64176908 323.47081188 -325.6251109 320.9223465 -325.61914062 318.37353516 C-325.50806214 290.17626251 -317.82834265 266.73457403 -298 246 C-297.44957031 245.38640625 -296.89914062 244.7728125 -296.33203125 244.140625 C-288.4933792 235.70197737 -277.89616943 229.69644065 -268 224 C-268.680625 223.484375 -269.36125 222.96875 -270.0625 222.4375 C-277.33400717 216.40369618 -282.82432081 210.98251204 -284.44921875 201.33203125 C-284.9201321 193.91252977 -282.79377103 188.63739534 -278 183 C-265.67487304 171.91467871 -247.13710734 168.59169856 -231.25 166.3125 C-230.3420166 166.18149902 -229.4340332 166.05049805 -228.49853516 165.91552734 C-223.92614801 165.29007904 -219.55826978 164.96656462 -214.9375 165 C-208.19926767 164.48823552 -203.92156127 159.07851505 -199.47412109 154.48974609 C-197.16130588 152.15241611 -194.70970102 149.99466071 -192.25 147.8125 C-191.43015625 147.07644531 -190.6103125 146.34039062 -189.765625 145.58203125 C-189.18296875 145.05996094 -188.6003125 144.53789062 -188 144 C-204.25142078 138.99931155 -204.25142078 138.99931155 -221 138 C-223.35627684 139.56697388 -223.35627684 139.56697388 -225.375 141.75 C-234.90565881 150.80092766 -245.5181165 152.59445758 -258.27734375 152.3125 C-268.55049831 151.81045213 -279.34823511 149.23908544 -287 142 C-295.28401282 131.30271733 -292.58802827 114.55743363 -291 102 C-288.28403135 89.18802222 -282.6136976 79.76225646 -272 72 C-262.95671968 66.73646724 -253.41389106 65.67270286 -243.125 65.8125 C-242.14829346 65.81677002 -241.17158691 65.82104004 -240.1652832 65.82543945 C-235.4508876 65.86762732 -230.86338426 66.03907229 -226.1875 66.6875 C-221.68928475 67.20625152 -217.65158835 66.50348749 -213.25 65.625 C-179.36845619 58.94823024 -146.13830221 66.05960407 -114 77 C-113.17757813 76.23816406 -112.35515625 75.47632812 -111.5078125 74.69140625 C-105.55306011 69.18139971 -99.57777483 63.69894948 -93.53515625 58.28515625 C-90.63086734 55.66726871 -87.75229225 53.02246797 -84.875 50.375 C-81.63788971 47.39775181 -78.3886208 44.44046979 -75.0625 41.5625 C-71.51595292 38.48784276 -68.06858139 35.31372166 -64.625 32.125 C-64.06611084 31.60881104 -63.50722168 31.09262207 -62.93139648 30.56079102 C-60.34310161 28.17017919 -57.75975086 25.77510011 -55.1875 23.3671875 C-54.341875 22.58601563 -53.49625 21.80484375 -52.625 21 C-51.89539063 20.319375 -51.16578125 19.63875 -50.4140625 18.9375 C-45.18613093 14.74161965 -39.32853116 12.15172469 -33.125 9.765625 C-32.03276123 9.34129181 -32.03276123 9.34129181 -30.91845703 8.90838623 C-29.39016029 8.31725645 -27.86068008 7.72917799 -26.33007812 7.14404297 C-24.00141279 6.25054208 -21.68050998 5.33863674 -19.359375 4.42578125 C-17.86502152 3.85042313 -16.37024337 3.27616651 -14.875 2.703125 C-13.84656982 2.29540863 -13.84656982 2.29540863 -12.79736328 1.87945557 C-8.386157 0.22011887 -4.69846465 -0.58263781 0 0 Z M-272 86 C-280.18536503 96.62169423 -281.05080126 108.32924524 -281.25 121.25 C-281.27143066 122.03093018 -281.29286133 122.81186035 -281.31494141 123.61645508 C-281.3417851 128.24699215 -281.01377614 131.25030178 -278 135 C-269.30087619 141.08938667 -260.35994224 141.31553124 -250 141 C-250.61875 140.29875 -251.2375 139.5975 -251.875 138.875 C-258.85154403 129.43614632 -256.50050195 114.86243956 -255.05029297 103.73876953 C-253.50312706 93.70330011 -250.17456078 86.21129918 -242.57421875 79.42578125 C-242.05472656 78.95527344 -241.53523438 78.48476562 -241 78 C-241 77.67 -241 77.34 -241 77 C-252.66827409 76.45868832 -263.06770902 77.83626178 -272 86 Z M-80 116 C-80.33 117.65 -80.66 119.3 -81 121 C-81.99515625 121.25652344 -82.9903125 121.51304688 -84.015625 121.77734375 C-114.06995114 129.86819159 -140.46363934 146.97858632 -164 167 C-165.0448368 167.87197655 -166.09044566 168.7430286 -167.13671875 169.61328125 C-178.15151452 178.80458751 -188.58632811 188.50306804 -198.75 198.625 C-199.96755981 199.83555054 -199.96755981 199.83555054 -201.2097168 201.07055664 C-201.960354 201.82328857 -202.71099121 202.57602051 -203.484375 203.3515625 C-204.16209961 204.03041504 -204.83982422 204.70926758 -205.53808594 205.40869141 C-207.11275543 206.76258673 -207.11275543 206.76258673 -207 208 C-205.18117348 208.27981946 -203.3580825 208.53994941 -201.52734375 208.7265625 C-199 209 -199 209 -196.25390625 209.5234375 C-192.1497717 210.01397151 -188.80242866 210.25100769 -185.27148438 207.80029297 C-181.67834873 204.68377738 -178.52298461 201.19108894 -175.41015625 197.60302734 C-173.37852168 195.29352031 -171.19113753 193.15778689 -169 191 C-167.87088554 189.85043982 -166.74340899 188.69926957 -165.6171875 187.546875 C-159.23967091 181.0587853 -152.87516408 174.79197936 -145.71484375 169.15625 C-143.25997703 167.20648535 -140.88786468 165.18433966 -138.52441406 163.12548828 C-118.55132615 145.81343023 -95.35609324 130.90490114 -70.80053711 120.97875977 C-68.70559055 120.04521071 -68.70559055 120.04521071 -67.4375 117.25 C-67.293125 116.5075 -67.14875 115.765 -67 115 C-68.60407328 114.97291433 -70.2082785 114.95356517 -71.8125 114.9375 C-72.70582031 114.92589844 -73.59914063 114.91429688 -74.51953125 114.90234375 C-77.13413791 114.88990033 -77.13413791 114.88990033 -80 116 Z M-237 198 C-237.66 198.99 -238.32 199.98 -239 201 C-230.4835233 205.93431803 -230.4835233 205.93431803 -221 206 C-216.34673547 202.74130901 -212.59262987 198.35806991 -209 194 C-209 193.67 -209 193.34 -209 193 C-218.29106111 192.76905584 -228.59521167 193.88000572 -237 198 Z M-259.3125 232.5 C-260.19550781 232.9640625 -261.07851563 233.428125 -261.98828125 233.90625 C-262.65214844 234.2671875 -263.31601562 234.628125 -264 235 C-263.34 238.3 -262.68 241.6 -262 245 C-257.73451402 245 -255.30542739 242.62254333 -252 240.1875 C-251.3709375 239.73568359 -250.741875 239.28386719 -250.09375 238.81835938 C-247.17451005 236.70005496 -244.50930034 234.60235986 -242 232 C-248.87265156 229.84387402 -252.86242763 229.0599614 -259.3125 232.5 Z M-292.25 255.875 C-297.04680833 260.78583706 -300.64128553 266.03182275 -304 272 C-304.46148437 272.80050781 -304.92296875 273.60101563 -305.3984375 274.42578125 C-311.5735613 285.85911653 -316.01946126 300.94667073 -314 314 C-310.01287032 325.49536089 -302.87119456 337.77717471 -293 345 C-289.44388923 339.43835418 -289.72282887 334.78381469 -289.9375 328.4375 C-290.34008839 303.87175263 -287.58729425 282.22807438 -273.515625 261.4375 C-270.40565761 256.52497577 -270.40565761 256.52497577 -270.6796875 250.88671875 C-271.27136719 249.30310547 -271.27136719 249.30310547 -271.875 247.6875 C-272.45894531 246.08455078 -272.45894531 246.08455078 -273.0546875 244.44921875 C-273.36664063 243.64097656 -273.67859375 242.83273438 -274 242 C-280.16154942 242 -287.96799374 251.77688358 -292.25 255.875 Z M-151 300 C-151.16794655 301.45880026 -151.27630262 302.92454068 -151.359375 304.390625 C-152.2926608 318.52990483 -153.44282675 333.62950959 -159.21875 346.7734375 C-160.25989098 349.74068929 -160.05802454 351.02787298 -159 354 C-157.46163415 356.55273725 -155.72277463 358.92804104 -153.9375 361.3125 C-153.46505859 361.95767578 -152.99261719 362.60285156 -152.50585938 363.26757812 C-151.34490296 364.85070051 -150.17347664 366.42613569 -149 368 C-132.67148613 352.38861681 -127.5665935 328.09321916 -126.8828125 306.2578125 C-126.87632636 303.50120109 -126.90445955 300.75474958 -127 298 C-139.66256988 296.79245699 -139.66256988 296.79245699 -151 300 Z M-314 339 C-314.32871094 339.7734375 -314.65742188 340.546875 -314.99609375 341.34375 C-318.53418278 349.09111027 -322.25796519 353.87806609 -329 359 C-330.54300781 360.18529297 -330.54300781 360.18529297 -332.1171875 361.39453125 C-333.78111801 362.67024421 -335.44627119 363.94416452 -337.11572266 365.21264648 C-351.9273088 375.87190809 -351.9273088 375.87190809 -360.40625 391.26171875 C-360.72520621 399.51471079 -357.64619244 404.0577492 -352.171875 409.9765625 C-344.85985842 416.96161898 -335.7565674 420.17126704 -325.75 420.0625 C-324.67234375 420.05347656 -323.5946875 420.04445313 -322.484375 420.03515625 C-321.66453125 420.02355469 -320.8446875 420.01195312 -320 420 C-320.680625 419.34 -321.36125 418.68 -322.0625 418 C-329.46593367 410.53328912 -335.00165958 404.62682307 -335.5 393.625 C-335.15026383 382.67076368 -329.19992792 376.40720096 -321.55859375 369.15234375 C-315.45245056 363.59223572 -308.70694421 358.80040169 -302 354 C-303.49672614 350.88090568 -305.1226655 348.521154 -307.4375 345.9375 C-308.03433594 345.26589844 -308.63117188 344.59429687 -309.24609375 343.90234375 C-310.79296942 342.2245521 -312.37171566 340.59840757 -314 339 Z M-60.82055664 357.09277344 C-63.97055097 360.37814669 -63.97055097 360.37814669 -65.67578125 364.51953125 C-65.42146524 366.90009589 -64.88705481 368.77825623 -64 371 C-63.61328125 372.15435547 -63.61328125 372.15435547 -63.21875 373.33203125 C-62.54804663 375.24688936 -61.78277056 377.12815737 -61 379 C-60.01 379 -59.02 379 -58 379 C-51.72733528 371.22189575 -52.47349371 359.45741379 -52 350 C-54.83887651 350 -58.7791775 355.09989359 -60.82055664 357.09277344 Z M-167 363 C-168.26040875 364.49504331 -169.48252568 366.02242805 -170.6875 367.5625 C-171.4196875 368.48160156 -172.151875 369.40070313 -172.90625 370.34765625 C-174.08750883 371.84406436 -175.26084423 373.34706774 -176.40625 374.87109375 C-184.54458869 385.21770116 -196.63840337 391.81993913 -208 398 C-210.33923804 399.32328736 -212.66977279 400.66085677 -215 402 C-215 403.65 -215 405.3 -215 407 C-183.47525752 396.55271203 -183.47525752 396.55271203 -157 377 C-158.54684266 373.67312232 -160.45954979 370.75296022 -162.5625 367.75 C-163.49255859 366.41195313 -163.49255859 366.41195313 -164.44140625 365.046875 C-164.95574219 364.37140625 -165.47007812 363.6959375 -166 363 C-166.33 363 -166.66 363 -167 363 Z M-241.28686523 411.47998047 C-243.29141669 412.24198545 -245.30062528 412.99057561 -247.31054688 413.73828125 C-248.59926623 414.2257493 -249.88768756 414.71400609 -251.17578125 415.203125 C-252.34020752 415.64301758 -253.50463379 416.08291016 -254.7043457 416.53613281 C-265.90227467 421.51004066 -270.62807035 430.87956302 -274.93359375 441.90625 C-279.93318049 456.4105456 -281.22315397 470.64628573 -275 485 C-271.20469918 491.660917 -265.20379443 498.0621397 -258 501 C-255.58191137 501.35140838 -255.58191137 501.35140838 -253.0625 501.3125 C-251.81146484 501.33763672 -251.81146484 501.33763672 -250.53515625 501.36328125 C-247.46301647 500.92305167 -245.54762318 499.7272794 -243 498 C-243.45890625 497.35675781 -243.9178125 496.71351563 -244.390625 496.05078125 C-253.62112417 482.45712596 -255.64300871 469.20881859 -253.4921875 453.2265625 C-250.99084848 440.20234899 -245.62419187 424.64759803 -235 416 C-232.05916039 414.21165159 -229.0632479 412.56832953 -226 411 C-226 409.68 -226 408.36 -226 407 C-231.35613248 407 -236.32194622 409.5877202 -241.28686523 411.47998047 Z " fill="#11213E" transform="translate(371,0)"/>
<path d="M0 0 C0.33 0.66 0.66 1.32 1 2 C-1.48428647 9.03015992 -4.58059671 17.73786235 -11.671875 21.17578125 C-15.03507696 22.45921769 -18.502167 23.38886464 -21.96875 24.35009766 C-35.5916307 28.70876454 -52.74644599 41.44875059 -61 53 C-61.3845927 56.40115662 -61.46422522 58.29162724 -59.56434441 61.19070244 C-58.88632334 61.87098566 -58.20830227 62.55126888 -57.50973511 63.25216675 C-56.34896706 64.43831322 -56.34896706 64.43831322 -55.16474915 65.64842224 C-54.30455673 66.49646927 -53.44436432 67.3445163 -52.55810547 68.21826172 C-51.21193901 69.58019905 -51.21193901 69.58019905 -49.83857727 70.96965027 C-47.37903724 73.45652719 -44.90091349 75.92406894 -42.4181838 78.38776922 C-39.82148011 80.96927434 -37.23945674 83.56539577 -34.65505981 86.15921021 C-30.3126796 90.51250405 -25.95780674 94.85299943 -21.59570312 99.18652344 C-16.55382353 104.19574975 -11.53392428 109.22622615 -6.52489746 114.26828754 C-2.22248763 118.5979317 2.09151317 122.91576514 6.4154042 127.22395718 C8.9973418 129.79654407 11.57506258 132.37300461 14.14239883 134.96017075 C17.0052164 137.84355065 19.89193841 140.70176871 22.78173828 143.55810547 C23.62978531 144.41829788 24.47783234 145.2784903 25.35157776 146.16474915 C26.14234207 146.93859451 26.93310638 147.71243988 27.74783325 148.50973511 C28.76825809 149.52676671 28.76825809 149.52676671 29.80929756 150.56434441 C32.72092467 152.47245099 34.58332935 152.41221528 38 152 C40.22375429 150.34129803 41.88753223 148.87413985 43.75 146.875 C44.2665918 146.33584961 44.78318359 145.79669922 45.31542969 145.24121094 C53.03546339 136.98091705 59.24023352 127.97028765 64.3125 117.875 C64.65079834 117.20235107 64.98909668 116.52970215 65.33764648 115.83666992 C66.82864394 112.77065938 68.01825073 109.93452552 68.9375 106.63671875 C70.17000276 102.30645236 71.19079891 99.2094116 75.06640625 96.61865234 C80.51059137 93.62154647 86.19921215 91.21517107 92 89 C90.27647349 140.47784508 46.07619709 186.8985706 11.8125 221.3125 C11.05686768 222.07280518 10.30123535 222.83311035 9.52270508 223.61645508 C8.82040771 224.31665771 8.11811035 225.01686035 7.39453125 225.73828125 C6.76393799 226.36774658 6.13334473 226.99721191 5.48364258 227.64575195 C4 229 4 229 3 229 C1.76760097 224.06013389 1.63277813 219.12651036 1.5 214.0625 C1.44585937 213.18142578 1.39171875 212.30035156 1.3359375 211.39257812 C1.20108358 204.9629358 1.20108358 204.9629358 3.51025391 202.1796875 C4.7429655 201.15880301 6.00937573 200.17710362 7.30761719 199.2409668 C9.38125296 197.72044016 10.34256366 196.21455759 11.375 193.875 C11.67148437 193.23304688 11.96796875 192.59109375 12.2734375 191.9296875 C14.85393447 185.07610954 15.22228562 177.74353159 12.94140625 170.7578125 C9.13125198 162.4766642 4.44203227 157.82181507 -3.8125 154.125 C-10.3730489 151.97674183 -17.26655431 151.99412172 -23.6875 154.5625 C-32.78994415 159.21159782 -37.81111668 165.43335004 -41 175 C-41.92696378 184.13287269 -40.29054594 192.15898096 -34.5 199.4375 C-32.25244408 202.00223193 -32.25244408 202.00223193 -29.9140625 203.10546875 C-26.83118252 206.15689077 -27.14349343 209.68928681 -26.875 213.875 C-26.80063721 214.76340576 -26.72627441 215.65181152 -26.6496582 216.56713867 C-26.41552204 219.37701935 -26.20488478 222.18784636 -26 225 C-25.01928694 238.34514607 -23.16311721 251.07675862 -20.12109375 264.12109375 C-19.92555908 264.97477539 -19.73002441 265.82845703 -19.52856445 266.70800781 C-19.09618981 268.58289612 -18.64800112 270.45413131 -18.1953125 272.32421875 C-17.94831074 275.70814289 -18.8056077 277.42963341 -20.4375 280.375 C-20.91058594 281.24898438 -21.38367188 282.12296875 -21.87109375 283.0234375 C-22.24363281 283.67570312 -22.61617187 284.32796875 -23 285 C-34.67271104 286.35729198 -47.69114475 278.63525615 -56.8125 271.93359375 C-65.24272372 265.20112342 -73.03901883 258.03761661 -79 249 C-78.6596875 248.52433594 -78.319375 248.04867187 -77.96875 247.55859375 C-65.33106793 229.30789864 -59.60606626 210.91352451 -57.875 188.8125 C-57.58625 185.244375 -57.2975 181.67625 -57 178 C-68.88 178.99 -68.88 178.99 -81 180 C-81.99 178.02 -82.98 176.04 -84 174 C-105.19993125 173.19930841 -105.19993125 173.19930841 -125.68359375 177.75 C-138.11944833 182.53672398 -138.11944833 182.53672398 -143.640625 180.9609375 C-146.45478694 179.25476685 -148.97472514 177.45973003 -151.46289062 175.30712891 C-153.02175065 173.98150366 -154.6297934 172.79128559 -156.296875 171.60546875 C-170.2743908 161.55925718 -185.78966851 147.00843843 -191 130 C-191.0078125 127.5390625 -191.0078125 127.5390625 -190 125 C-187.94096534 123.0863774 -186.01567983 121.49617572 -183.75 119.875 C-182.88955078 119.23111328 -182.88955078 119.23111328 -182.01171875 118.57421875 C-180.36072993 117.35196051 -178.68850857 116.16970173 -177 115 C-176.12730469 114.3915625 -175.25460938 113.783125 -174.35546875 113.15625 C-171.5473894 111.77782299 -170.5561591 111.86775065 -167.5625 112.625 C-162.01975783 113.82383075 -156.48956981 114.72254453 -150.875 115.5 C-149.9463916 115.63188721 -149.0177832 115.76377441 -148.06103516 115.8996582 C-142.77265667 116.61474782 -137.52026972 117.12717137 -132.19140625 117.42578125 C-131.06557129 117.4928125 -129.93973633 117.55984375 -128.77978516 117.62890625 C-126.59189329 117.74908848 -124.40250686 117.84509327 -122.21240234 117.9140625 C-114.86774756 118.32137529 -114.86774756 118.32137529 -112.31860352 120.31494141 C-111.03125 121.90234375 -111.03125 121.90234375 -109 125 C-102.57181841 130.10291101 -95.8563627 132.51810535 -87.6484375 132.30859375 C-79.50009946 131.35915613 -72.16129253 127.37436794 -67 121 C-62.97763031 114.06116762 -60.6168475 107.01716171 -62 99 C-63.97262347 91.927935 -66.89199443 85.42266995 -73.4375 81.5625 C-81.99758975 77.1829192 -90.27575354 75.01518794 -99.83203125 77.8359375 C-105.34108801 80.35774843 -108.89844531 83.60211035 -112.52734375 88.42578125 C-113.01332031 88.94527344 -113.49929687 89.46476562 -114 90 C-114.99 90 -115.98 90 -117 90 C-115.44200307 86.23121414 -113.090634 83.88728855 -110.1875 81.0625 C-109.33542969 80.22847656 -108.48335938 79.39445312 -107.60546875 78.53515625 C-106.74566406 77.69855469 -105.88585937 76.86195313 -105 76 C-102.11107727 73.13030471 -99.24915281 70.2356554 -96.3984375 67.328125 C-89.74511397 60.56747648 -83.14855937 53.98316084 -75.6796875 48.12109375 C-73.23509231 46.18608619 -70.87690075 44.17540726 -68.52661133 42.12768555 C-52.74415653 28.44503192 -35.45261852 17.41843815 -17.0625 7.625 C-16.28140869 7.20774658 -15.50031738 6.79049316 -14.69555664 6.3605957 C-9.89705651 3.84831612 -5.10883147 1.80174944 0 0 Z " fill="#9BD1FA" transform="translate(301,120)"/>
<path d="M0 0 C1.74796875 0.76376953 1.74796875 0.76376953 3.53125 1.54296875 C11.20291522 5.04805551 17.73481963 9.36812306 24 15 C24.61101562 15.51820312 25.22203125 16.03640625 25.8515625 16.5703125 C34.86420894 24.7598862 41.07243961 36.62742554 45 48 C45.55107422 49.55267578 45.55107422 49.55267578 46.11328125 51.13671875 C47.29004045 56.2636564 47.29063367 61.13325637 47.25 66.375 C47.26160156 67.86 47.26160156 67.86 47.2734375 69.375 C47.22801096 86.59165722 40.43463287 102.43191426 28.5625 114.9375 C22.26463876 120.83381975 17.86735747 123.19176887 9.125 123.4375 C-12.13994517 122.73546241 -28.36112721 108.09591288 -43 94 C-43.63518555 93.3920459 -44.27037109 92.7840918 -44.92480469 92.15771484 C-61.25192469 76.45313971 -79.59877624 57.81675096 -80.4375 33.875 C-80.16241984 24.08849418 -76.76179692 18.94927356 -69.734375 12.30078125 C-50.61885097 -3.78356683 -23.63269034 -10.768121 0 0 Z " fill="#3178AE" transform="translate(415,54)"/>
<path d="M0 0 C2.17715005 2.03504351 3.71146713 3.97985759 5.15625 6.58203125 C5.53910156 7.26716797 5.92195313 7.95230469 6.31640625 8.65820312 C6.90228516 9.72458008 6.90228516 9.72458008 7.5 10.8125 C8.08587891 11.86147461 8.08587891 11.86147461 8.68359375 12.93164062 C14.966138 24.23810494 14.966138 24.23810494 15.125 27.8125 C11.90444436 36.93740765 5.23117128 41.61100133 -3 46 C-3.99 46.66 -4.98 47.32 -6 48 C-5.48247521 54.97595064 -3.93875711 60.9374651 -1.5625 67.5 C-1.09360352 68.85738281 -1.09360352 68.85738281 -0.61523438 70.2421875 C0.67704925 74.94433504 0.67704925 74.94433504 4 78 C11.7136423 78.68871806 18.18482106 76.8829912 24.4140625 72.17578125 C26.33609042 70.50164739 28.19294677 68.79695796 30 67 C40.4418146 86.5531311 38.29028734 119.23313546 33.65625 140.34375 C32.50204208 146.77433698 32.89281556 152.59175064 34 159 C34.86171459 172.08005584 34.47210187 184.31778459 26 195 C18.59971303 202.99230993 9.81708331 205.60972277 -0.81176758 206.14038086 C-3.93772226 206.24092693 -7.06010241 206.28384333 -10.1875 206.3125 C-11.25419922 206.34150391 -12.32089844 206.37050781 -13.41992188 206.40039062 C-21.20371279 206.46367348 -21.20371279 206.46367348 -25.1328125 204.17578125 C-31.40113574 196.8714799 -32.46877543 186.01760483 -32.24609375 176.73046875 C-31.50733278 168.53373994 -28.65224833 162.00551385 -23 156 C-21.515 155.01 -21.515 155.01 -20 154 C-19.50371094 154.26554688 -19.00742187 154.53109375 -18.49609375 154.8046875 C-17.81675781 155.15789062 -17.13742187 155.51109375 -16.4375 155.875 C-15.77621094 156.22304688 -15.11492187 156.57109375 -14.43359375 156.9296875 C-7.4920251 159.98264065 -1.07040881 160.3905305 6.4375 160.625 C7.96407227 160.68300781 7.96407227 160.68300781 9.52148438 160.7421875 C12.01404632 160.83580485 14.50699739 160.91896142 17 161 C16.67 157.7 16.34 154.4 16 151 C14.67226563 151.04640625 13.34453125 151.0928125 11.9765625 151.140625 C-6.78385283 151.59819611 -6.78385283 151.59819611 -14 147 C-16.81412326 144.18587674 -16.98520199 141.01137555 -17.69921875 137.23046875 C-18.02066075 135.61186398 -18.34270574 133.99337887 -18.6652832 132.375 C-18.91527573 131.10269531 -18.91527573 131.10269531 -19.1703186 129.8046875 C-23.56681651 105.5393726 -23.56681651 105.5393726 -32.76171875 82.84375 C-34.32177811 79.26102693 -34.17475426 77.70975028 -33 74 C-31.58856977 71.63906217 -30.16399122 69.47089061 -28.5625 67.25 C-14.19050341 46.40982471 -5.16996192 24.75616383 0 0 Z " fill="#9AD1F9" transform="translate(402,216)"/>
<path d="M0 0 C3.0421424 2.67706654 5.90543847 5.50515894 8.7578125 8.3828125 C9.74201172 9.31673828 9.74201172 9.31673828 10.74609375 10.26953125 C19.66813621 19.39667814 25.74587995 32.91601613 27.7578125 45.3828125 C28.03044922 47.01476562 28.03044922 47.01476562 28.30859375 48.6796875 C31.18481034 72.38971641 25.73458658 95.40105044 11.0078125 114.4453125 C2.63986223 124.42369848 -6.02802618 131.90524837 -17.2421875 138.3828125 C-18.17417969 138.92679688 -19.10617187 139.47078125 -20.06640625 140.03125 C-29.42334516 145.0767891 -39.95901671 148.69873736 -50.2421875 151.3828125 C-51.27744064 151.71206223 -52.31269379 152.04131195 -53.37931824 152.38053894 C-58.42889955 152.38351096 -59.80773349 150.78821331 -63.32806396 147.38116455 C-64.44281097 146.24212677 -64.44281097 146.24212677 -65.58007812 145.08007812 C-66.38249939 144.29167542 -67.18492065 143.50327271 -68.01165771 142.690979 C-70.66108052 140.0767948 -73.28013508 137.43438931 -75.8984375 134.7890625 C-77.72811908 132.96476852 -79.55898694 131.14166361 -81.39099121 129.31970215 C-85.22695915 125.49553498 -89.04841829 121.65766736 -92.859375 117.80859375 C-97.26343843 113.36099195 -101.69558561 108.942948 -106.14342356 104.53915644 C-110.42414818 100.29913195 -114.68199522 96.03695019 -118.93070984 91.76481628 C-120.73976648 89.95041705 -122.55480107 88.14195824 -124.37580872 86.33955383 C-126.91687586 83.81877074 -129.43093603 81.27382406 -131.93945312 78.72070312 C-132.69881165 77.97753845 -133.45817017 77.23437378 -134.24053955 76.46868896 C-139.24227534 71.30064936 -139.24227534 71.30064936 -139.24182129 66.55627441 C-138.91194214 65.50903198 -138.58206299 64.46178955 -138.2421875 63.3828125 C-138.01402344 62.35542969 -137.78585937 61.32804687 -137.55078125 60.26953125 C-130.10090828 32.90878704 -114.61983166 8.86922394 -89.796875 -5.76171875 C-62.67370827 -20.41980296 -24.42921926 -20.46852309 0 0 Z M-115.2421875 28.3828125 C-121.63857332 35.99965814 -121.94727092 42.68287912 -121.2421875 52.3828125 C-118.56735899 65.45079998 -110.79429797 76.44037783 -102.2421875 86.3828125 C-101.61183594 87.12402344 -100.98148437 87.86523438 -100.33203125 88.62890625 C-83.95603083 107.33982774 -62.1777547 132.07086529 -35.83203125 134.7265625 C-26.59875888 135.1215688 -21.19255435 133.49571127 -14.1640625 127.65625 C-2.10692106 116.47348142 5.30863351 100.50245558 6.03125 84.1953125 C6.55455856 62.87506304 0.92452703 46.61725262 -13.2421875 30.3828125 C-13.76167969 29.76792969 -14.28117187 29.15304688 -14.81640625 28.51953125 C-24.82982577 17.5476484 -41.99852582 8.28257927 -56.86669922 7.18994141 C-80.79777458 6.50262593 -97.96438553 10.7625676 -115.2421875 28.3828125 Z " fill="#9AD0F9" transform="translate(456.2421875,42.6171875)"/>
<path d="M0 0 C2.42162065 1.80443203 4.52004833 3.90168113 6.65795898 6.02929688 C7.30563736 6.65872192 7.95331573 7.28814697 8.62062073 7.93664551 C10.75690283 10.01966219 12.87746617 12.11778813 14.99609375 14.21875 C16.47339405 15.67557865 17.95077659 17.13232391 19.42823792 18.58898926 C22.52156235 21.64482601 25.6057369 24.70959917 28.68530273 27.77929688 C32.63390092 31.71152097 36.61601561 35.60784226 40.60732937 39.49663544 C43.67043776 42.49277352 46.70860778 45.51327257 49.74043465 48.54103088 C51.19828677 49.98861963 52.66526651 51.42707566 54.14135551 52.85606384 C56.20373519 54.85748529 58.22853822 56.89075932 60.24780273 58.93554688 C60.8642868 59.51876709 61.48077087 60.1019873 62.11593628 60.70288086 C66.01951353 64.75607031 66.01951353 64.75607031 65.96393013 68.29934692 C64.87872374 73.50623043 62.75980895 78.23899366 60.3125 82.9375 C59.95728271 83.6298877 59.60206543 84.32227539 59.23608398 85.03564453 C54.09606724 94.85746392 47.5720704 102.929993 40 111 C36.9042446 109.62175583 34.79313711 108.04096882 32.40594482 105.64645386 C31.71048553 104.9537439 31.01502625 104.26103394 30.29849243 103.54733276 C29.54611298 102.78776276 28.79373352 102.02819275 28.01855469 101.24560547 C27.2181778 100.44552063 26.4178009 99.64543579 25.59317017 98.82110596 C22.94797053 96.17451263 20.30992615 93.52090472 17.671875 90.8671875 C15.83956781 89.03115034 14.00681866 87.19555414 12.17364502 85.36038208 C7.84224566 81.02212581 3.51532896 76.67944496 -0.80944896 72.33458912 C-5.73415149 67.38752156 -10.6645433 62.44614083 -15.59541941 57.5052278 C-25.7366189 47.34313072 -35.87065984 37.17391755 -46 27 C-39.52683156 13.23800437 -21.31590633 5.60976229 -8 0 C-4.51713608 -1.16095464 -3.44376133 -1.18551835 0 0 Z " fill="#98CEF7" transform="translate(297,150)"/>
<path d="M0 0 C1.29421875 -0.01224609 2.5884375 -0.02449219 3.921875 -0.03710938 C11.92337701 -0.04920842 19.41154477 0.60941652 27.25 2.1875 C28.80700734 2.47290964 30.36427661 2.75689626 31.921875 3.0390625 C33.28149231 3.29559407 34.64087603 3.55336741 36 3.8125 C36.70898438 3.9465625 37.41796875 4.080625 38.1484375 4.21875 C39.84917727 4.54051158 41.54962348 4.86382427 43.25 5.1875 C42.11938499 7.57379805 41.10971397 9.35116704 39.375 11.375 C34.93772851 17.24785932 32.80319984 22.87301162 32.81640625 30.2421875 C33.37867513 32.76479921 34.29352145 33.5182811 36.25 35.1875 C39.3963789 36.68519123 42.70684256 37.74179424 46 38.875 C46.88171875 39.19533203 47.7634375 39.51566406 48.671875 39.84570312 C55.79680197 42.34159212 55.79680197 42.34159212 63.25 42.1875 C65.33548742 39.8152031 65.33548742 39.8152031 66.6875 36.625 C70.18706635 29.94902546 74.8739462 23.80350446 82.25 21.1875 C88.22244458 21.30252486 93.00286883 24.50699398 98.0625 27.375 C98.91392578 27.84486328 99.76535156 28.31472656 100.64257812 28.79882812 C112.79916568 35.58540747 112.79916568 35.58540747 117.25 39.1875 C117.25 39.8475 117.25 40.5075 117.25 41.1875 C111.31 41.6825 111.31 41.6825 105.25 42.1875 C104.92 40.8675 104.59 39.5475 104.25 38.1875 C80.71113219 41.07998799 56.72964548 54.8774825 37.96875 68.81640625 C34.46311139 70.58433606 32.9940714 70.25387918 29.25 69.1875 C26.78296861 68.31450793 24.36562403 67.40549079 21.9375 66.4375 C16.5659544 64.38416253 11.18498922 62.38174696 5.6875 60.6875 C4.69834595 60.38066284 4.69834595 60.38066284 3.68920898 60.06762695 C-1.33398366 58.62301555 -6.38024182 57.74094367 -11.54296875 56.96484375 C-12.94668525 56.74053279 -14.35024896 56.51526365 -15.75366211 56.2890625 C-18.54826128 55.83868675 -21.34086765 55.46218231 -24.15063477 55.12109375 C-28.02982345 54.5037802 -31.20425673 53.88579033 -34.75 52.1875 C-37.48232783 48.42017924 -38.7036266 44.68925957 -39.75 40.1875 C-39.94392334 39.46481934 -40.13784668 38.74213867 -40.33764648 37.99755859 C-42.79149836 27.22618038 -40.07218626 16.17793359 -35.4375 6.42578125 C-33.32504741 3.62384761 -31.94600547 3.22014443 -28.5625 2.4375 C-27.66144531 2.21578125 -26.76039063 1.9940625 -25.83203125 1.765625 C-17.18587223 0.14378529 -8.78636683 0.004324 0 0 Z " fill="#9AD1F9" transform="translate(184.75,73.8125)"/>
<path d="M0 0 C2.92004827 0.14109477 3.96498675 0.96623722 6.078125 3.00390625 C7.15320313 4.27041016 7.15320313 4.27041016 8.25 5.5625 C9.04664063 6.47128906 9.84328125 7.38007813 10.6640625 8.31640625 C11.43492187 9.20199219 12.20578125 10.08757812 13 11 C24.48726231 24.07592625 40.93213698 33.5864274 58 37 C56.23930239 47.44521958 42.98691085 58.36344914 34.8984375 64.26171875 C21.90381492 72.56120397 9.15238782 77.06729747 -6 79 C-6.83015625 79.15082031 -7.6603125 79.30164063 -8.515625 79.45703125 C-19.08505846 80.64710105 -31.75427933 71.05815872 -39.60546875 64.984375 C-48.99280206 57.20498622 -55.55958753 48.20206235 -58 36 C-58.02444805 34.00014943 -58.02785245 31.99980605 -58 30 C-56.88625 29.57589844 -55.7725 29.15179688 -54.625 28.71484375 C-25.18057206 18.02040301 -25.18057206 18.02040301 0 0 Z " fill="#9BD2FB" transform="translate(213,377)"/>
<path d="M0 0 C3 1 3 1 4.2890625 3.08203125 C4.72992188 3.98308594 5.17078125 4.88414062 5.625 5.8125 C15.16095597 23.88185422 29.46732539 36.67301638 46.30517578 47.76416016 C48.05417834 49.03950602 49.51177649 50.43216194 51 52 C50.29875 52.49628906 49.5975 52.99257813 48.875 53.50390625 C33.65677334 64.40065279 23.75481983 76.07069 14.91015625 92.46875 C14.4152771 93.37463867 14.4152771 93.37463867 13.91040039 94.29882812 C13.09269323 95.82679366 12.32424951 97.38088144 11.5625 98.9375 C10 101 10 101 7.65234375 101.59375 C-2.85785941 101.23080773 -12.69981467 98.85813293 -21 92 C-21.90234375 90.12109375 -21.90234375 90.12109375 -22 88 C-21.690625 87.3090625 -21.38125 86.618125 -21.0625 85.90625 C-19.44284589 81.47601965 -19.88353753 77.17281493 -20 72.5 C-20.30809699 46.51853239 -16.81428221 24.91597419 -2 3 C-1.34 2.01 -0.68 1.02 0 0 Z " fill="#9BD1FA" transform="translate(100,256)"/>
<path d="M0 0 C1.74796875 0.76376953 1.74796875 0.76376953 3.53125 1.54296875 C11.20291522 5.04805551 17.73481963 9.36812306 24 15 C24.61101562 15.51820312 25.22203125 16.03640625 25.8515625 16.5703125 C34.86420894 24.7598862 41.07243961 36.62742554 45 48 C45.55107422 49.55267578 45.55107422 49.55267578 46.11328125 51.13671875 C47.29004045 56.2636564 47.29063367 61.13325637 47.25 66.375 C47.26160156 67.86 47.26160156 67.86 47.2734375 69.375 C47.22801096 86.59165722 40.43463287 102.43191426 28.5625 114.9375 C22.26463876 120.83381975 17.86735747 123.19176887 9.125 123.4375 C-12.13994517 122.73546241 -28.36112721 108.09591288 -43 94 C-43.63518555 93.3920459 -44.27037109 92.7840918 -44.92480469 92.15771484 C-61.25192469 76.45313971 -79.59877624 57.81675096 -80.4375 33.875 C-80.16241984 24.08849418 -76.76179692 18.94927356 -69.734375 12.30078125 C-50.61885097 -3.78356683 -23.63269034 -10.768121 0 0 Z M-66.66015625 23.32421875 C-70.33912398 27.92560988 -70.48689237 32.0187931 -70.375 37.78125 C-69.75053775 43.14121766 -67.63812713 47.34803537 -65 52 C-64.50371094 52.88300781 -64.00742187 53.76601562 -63.49609375 54.67578125 C-49.94732004 77.23530567 -24.03374681 105.77028935 2 113 C4.76551228 113.34749166 4.76551228 113.34749166 7.5 113.3125 C8.84578125 113.33763672 8.84578125 113.33763672 10.21875 113.36328125 C17.33595687 112.43364608 21.33923429 108.06156742 25.8203125 102.87890625 C33.58521451 92.62311274 37.59483269 80.61131243 37.5 67.8125 C37.49141968 66.44665771 37.49141968 66.44665771 37.48266602 65.05322266 C37.02389371 47.49012123 28.47203805 33.01306705 16 21 C1.09798445 8.22684382 -15.39894727 4.79233389 -34.51660156 5.76171875 C-46.63846166 6.92480717 -58.32532189 14.7855987 -66.66015625 23.32421875 Z " fill="#12223F" transform="translate(415,54)"/>
<path d="M0 0 C3.21977235 1.5020647 6.01486908 3.36212036 8.9375 5.375 C17.56684836 10.90515649 26.84389851 13.31145075 37 14 C34.99531521 20.99286759 32.70075633 27.82261649 30.125 34.625 C29.79886719 35.51445312 29.47273438 36.40390625 29.13671875 37.3203125 C24.66304594 49.15726781 19.64316004 55.42940293 8 61 C3.11659642 63.11597322 -1.84793319 64.65426889 -7 66 C-8.00417969 66.27714844 -9.00835937 66.55429687 -10.04296875 66.83984375 C-14.41749604 67.68513323 -16.86666272 67.6975634 -20.72265625 65.32421875 C-27.15033687 59.84317739 -33.4269257 52.91085203 -34.2734375 44.1796875 C-34.60366647 33.43454471 -32.01170126 28.0289936 -24.80810547 20.35229492 C-17.27291176 12.61163721 -8.77813357 6.2539976 0 0 Z " fill="#9BD2FB" transform="translate(69,353)"/>
<path d="M0 0 C2.359375 2.06640625 2.359375 2.06640625 4.75 4.5625 C5.54921875 5.38878906 6.3484375 6.21507812 7.171875 7.06640625 C7.77515625 7.70449219 8.3784375 8.34257812 9 9 C5.48167189 11.92444153 1.53980449 13.7427573 -2.5625 15.6875 C-9.61803164 19.12811113 -15.86826983 23.066424 -22 28 C-22.69222656 28.52851562 -23.38445312 29.05703125 -24.09765625 29.6015625 C-41.49132642 43.64098614 -53.10598151 67.95284139 -58.4296875 89.28515625 C-59 91 -59 91 -61 93 C-61.81597656 92.48953125 -62.63195312 91.9790625 -63.47265625 91.453125 C-74.99148247 84.35070601 -86.95857398 78.16273687 -99 72 C-99 69 -99 69 -97.3125 66.984375 C-96.549375 66.24703125 -95.78625 65.5096875 -95 64.75 C-94.17113281 63.94820313 -93.34226562 63.14640625 -92.48828125 62.3203125 C-89.78237667 59.7970671 -87.02911742 57.34782053 -84.22265625 54.9375 C-81.48006717 52.54677209 -78.80141927 50.08911224 -76.125 47.625 C-72.43465564 44.22944475 -68.73294454 40.84884735 -65 37.5 C-61.82978741 34.65493742 -58.67529752 31.79406236 -55.53833008 28.91235352 C-54.51610574 27.97384093 -53.49251225 27.03681737 -52.4675293 26.10131836 C-50.06305317 23.90562453 -47.68248962 21.69550615 -45.33203125 19.44140625 C-44.50058594 18.65636719 -43.66914063 17.87132813 -42.8125 17.0625 C-42.09707031 16.37285156 -41.38164062 15.68320312 -40.64453125 14.97265625 C-37.01826122 12.26768378 -33.16989052 10.71079358 -29 9 C-28.00895264 8.58161865 -27.01790527 8.1632373 -25.99682617 7.73217773 C-22.7354681 6.36257137 -19.46307712 5.02270592 -16.1875 3.6875 C-15.06923828 3.22021484 -13.95097656 2.75292969 -12.79882812 2.27148438 C-11.18717773 1.61696289 -11.18717773 1.61696289 -9.54296875 0.94921875 C-8.0892688 0.35113403 -8.0892688 0.35113403 -6.60620117 -0.2590332 C-3.82947796 -1.04848097 -2.63431694 -1.09843553 0 0 Z " fill="#FBC66F" transform="translate(368,12)"/>
<path d="M0 0 C3.80635497 3.20760251 7.54563567 6.40746109 11 10 C8.76082314 18.07303435 5.90100619 25.84144894 2.8125 33.625 C2.36841797 34.800625 1.92433594 35.97625 1.46679688 37.1875 C-1.5558743 44.77615261 -4.90443621 49.63452995 -11 55 C-12.10283766 56.21169753 -13.1891237 57.43889947 -14.25 58.6875 C-17.41769764 62.37103831 -20.69534019 65.93992472 -24 69.5 C-27.21176007 72.96270951 -30.4110352 76.4264917 -33.5 80 C-37.05200898 84.10646892 -40.74368577 88.07914924 -44.43725586 92.05786133 C-48.40944812 96.34142644 -52.30347093 100.68607213 -56.16015625 105.07421875 C-58 107 -58 107 -61 109 C-61.34667725 108.31599121 -61.69335449 107.63198242 -62.05053711 106.92724609 C-68.49975183 94.24631373 -74.8909787 81.71303076 -83 70 C-79.41399877 66.79048184 -75.31854576 65.68057759 -70.8125 64.3125 C-55.61940124 59.43318976 -42.59073102 52.79836438 -30 43 C-28.99259766 42.26910156 -28.99259766 42.26910156 -27.96484375 41.5234375 C-15.03627502 31.55957602 -6.10130901 14.74483011 0 0 Z " fill="#FCC66E" transform="translate(490,135)"/>
<path d="M0 0 C0.17015625 0.67804688 0.3403125 1.35609375 0.515625 2.0546875 C4.83105546 18.62777683 12.48654395 32.73068427 27.5625 42 C28.696875 42.66 29.83125 43.32 31 44 C31 44.33 31 44.66 31 45 C29.700625 45.185625 28.40125 45.37125 27.0625 45.5625 C16.28419336 48.05498341 10.38233939 56.93268767 4.19335938 65.38964844 C1.25392055 69.35620705 -1.89445138 73.16332446 -5 77 C-5.47179687 77.59683594 -5.94359375 78.19367188 -6.4296875 78.80859375 C-8.99667637 82.00537181 -11.7096298 84.555725 -15 87 C-21.09695836 84.43770069 -23.69873343 78.94980367 -26.2734375 73.11328125 C-32.12771047 56.56769415 -29.38432576 38.60217619 -22.390625 22.82421875 C-20.195406 18.36595095 -17.72696433 14.15172659 -15 10 C-14.401875 9.071875 -13.80375 8.14375 -13.1875 7.1875 C-9.90992875 3.90992875 -4.81097815 0 0 0 Z " fill="#9BD2FB" transform="translate(145,411)"/>
<path d="M0 0 C3.69908606 0.97468078 5.19209055 2.2192056 7.89871216 4.89070129 C8.78239975 5.7521727 9.66608734 6.6136441 10.57655334 7.5012207 C11.52139753 8.44837738 12.465435 9.39633941 13.40872192 10.345047 C14.38845074 11.31632255 15.36877118 12.28700165 16.34965515 13.2571106 C18.39797155 15.28906359 20.43650544 17.33025613 22.46902466 19.37800598 C25.07401832 22.0003194 27.70529702 24.59434671 30.34496975 27.18168926 C32.37414809 29.17779097 34.38685046 31.18988613 36.39512825 33.20699501 C37.35897465 34.17048161 38.32829988 35.12851968 39.3031292 36.08089256 C40.66288474 37.41342904 41.99822986 38.77073746 43.33230591 40.12898254 C44.48097389 41.27695564 44.48097389 41.27695564 45.65284729 42.44812012 C47.16262817 44.83332825 47.16262817 44.83332825 46.98922729 47.99871826 C45.61461091 52.7126131 42.41394907 55.3444769 38.97512817 58.70832825 C38.31448364 59.39668762 37.65383911 60.085047 36.97317505 60.79426575 C35.99380981 61.768797 35.99380981 61.768797 34.99465942 62.76301575 C34.4040271 63.35324524 33.81339478 63.94347473 33.2048645 64.55158997 C30.33510286 66.3526956 28.5100918 66.18486197 25.16262817 65.83332825 C22.72599792 64.15859985 22.72599792 64.15859985 20.33474731 61.78181458 C19.43103897 60.8970192 18.52733063 60.01222382 17.59623718 59.10061646 C16.6293168 58.12295788 15.66318418 57.14451966 14.69778442 56.1653595 C13.69592847 55.16754683 12.69318339 54.17062615 11.68959045 53.17456055 C9.59282109 51.08662571 7.5072598 48.98825258 5.4289856 46.88191223 C2.7635134 44.18220985 0.07194425 41.51040225 -2.62856197 38.84579945 C-4.70263738 36.7933959 -6.76222047 34.7269271 -8.8176899 32.65590477 C-9.80487231 31.66471944 -10.79653249 30.67797312 -11.79267693 29.69579506 C-13.18137842 28.32231862 -14.54887622 26.92750248 -15.91525269 25.53181458 C-16.69879623 24.74349747 -17.48233978 23.95518036 -18.28962708 23.14297485 C-19.83737183 20.83332825 -19.83737183 20.83332825 -19.67544556 18.16793823 C-18.06758636 13.68894789 -14.46070843 10.76036723 -11.14987183 7.45832825 C-10.44153198 6.70938293 -9.73319214 5.96043762 -9.00338745 5.188797 C-8.30536011 4.48625793 -7.60733276 3.78371887 -6.88815308 3.05989075 C-6.25562622 2.41616516 -5.62309937 1.77243958 -4.97140503 1.10920715 C-2.83737183 -0.16667175 -2.83737183 -0.16667175 0 0 Z " fill="#13203D" transform="translate(303.8373718261719,164.1666717529297)"/>
<path d="M0 0 C-0.95729916 1.12588014 -1.91587895 2.2506715 -2.875 3.375 C-3.40867187 4.00148437 -3.94234375 4.62796875 -4.4921875 5.2734375 C-7.71383804 8.96247776 -7.71383804 8.96247776 -10.06860352 9.27124023 C-11.33595337 9.28973022 -11.33595337 9.28973022 -12.62890625 9.30859375 C-13.5737085 9.33147461 -14.51851074 9.35435547 -15.49194336 9.37792969 C-17.0118689 9.40741699 -17.0118689 9.40741699 -18.5625 9.4375 C-38.61282405 9.50609489 -38.61282405 9.50609489 -56 18 C-58.39339917 20.62690153 -59.82157771 22.40985049 -60.22265625 25.984375 C-60.0364619 29.94659078 -59.25990668 31.69905542 -56.625 34.75 C-49.53861428 39.79695615 -40.42364383 41.67790436 -31.9375 42.6875 C-30.47908691 42.87119141 -30.47908691 42.87119141 -28.99121094 43.05859375 C-16.07919963 44.48166058 -3.04766848 44.46341047 9.92993164 44.53393555 C10.82835281 44.54406174 11.72677399 44.55418793 12.65242004 44.56462097 C14.35365131 44.58358436 16.05506902 44.59071768 17.75639343 44.58418274 C22.08856654 44.64229381 24.8777853 44.83375138 28 48 C27.125 53.875 27.125 53.875 26 55 C21.25805328 55.29491942 16.50028027 55.24542744 11.75 55.25 C11.0352652 55.25100708 10.3205304 55.25201416 9.58413696 55.25305176 C-60.02022609 55.18710639 -60.02022609 55.18710639 -81.0625 34.3125 C-84.22702649 30.41769816 -84.9420973 27.22849296 -84.546875 22.2578125 C-83.66136225 18.60190987 -82.00403306 17.19044078 -79 15 C-78.44183594 14.58234375 -77.88367188 14.1646875 -77.30859375 13.734375 C-64.13162077 4.60127473 -46.15143221 2.83339289 -30.625 1.3125 C-28.73841675 1.12143677 -28.73841675 1.12143677 -26.8137207 0.92651367 C-17.83978591 0.06377998 -9.01004172 -0.38310414 0 0 Z " fill="#3076AB" transform="translate(182,174)"/>
<path d="M0 0 C2.4375 0.8125 2.4375 0.8125 4.4375 3.8125 C4.64432232 6.81579837 4.73907134 9.73360757 4.74609375 12.73828125 C4.76873532 14.57593359 4.79186584 16.41357996 4.81542969 18.2512207 C4.82457397 19.21162262 4.83371826 20.17202454 4.84313965 21.16152954 C3.80257236 54.37215807 3.80257236 54.37215807 14.8828125 84.76953125 C17.21830662 86.98886205 19.29800167 87.78634406 22.4375 88.375 C27.48785066 87.42805925 30.44978477 85.14770969 33.48046875 81.05078125 C40.08308333 70.12549685 39.9519126 57.75716789 39.58276367 45.35668945 C39.57420056 39.10967694 39.92457367 35.56059383 44.421875 30.99609375 C48.11259351 27.8125 48.11259351 27.8125 49.4375 27.8125 C49.98082297 52.80535663 49.87902015 89.84529524 32.4375 109.8125 C28.12850177 112.68516549 24.48576327 112.73651247 19.4375 111.8125 C10.18211983 107.26744724 6.21171778 96.08962945 3.03125 86.88671875 C-3.84200489 65.24660518 -5.73854557 41.37761923 -5.80273438 18.77246094 C-5.81265115 16.65522908 -5.84389603 14.53888916 -5.875 12.421875 C-5.88151333 11.07031816 -5.88677031 9.71875454 -5.890625 8.3671875 C-5.8999707 7.15530762 -5.90931641 5.94342773 -5.91894531 4.69482422 C-5.80131836 3.74365723 -5.68369141 2.79249023 -5.5625 1.8125 C-2.5625 -0.1875 -2.5625 -0.1875 0 0 Z " fill="#3176AB" transform="translate(288.5625,302.1875)"/>
<path d="M0 0 C3.56145023 1.51653105 5.85630225 3.6030054 8.58496094 6.32617188 C9.48559265 7.22049927 10.38622437 8.11482666 11.31414795 9.03625488 C12.28781273 10.0134985 13.26121561 10.99100311 14.234375 11.96875 C15.23727681 12.97030424 16.24047532 13.97156145 17.24395752 14.97253418 C19.34185055 17.06748299 21.43609383 19.16599615 23.52783203 21.26708984 C26.21349788 23.96417928 28.90808178 26.65215186 31.60543442 29.3375473 C33.67646736 31.40136783 35.74273116 33.46991001 37.80756378 35.53993225 C38.79969595 36.53340111 39.79332289 37.52537947 40.78844452 38.51585388 C42.1746643 39.89701561 43.55382699 41.28524951 44.93261719 42.67382812 C45.71997253 43.46277466 46.50732788 44.25172119 47.31854248 45.0645752 C49 47 49 47 49 49 C45.92335374 50.20536243 42.83781732 51.38608194 39.75 52.5625 C38.44095703 53.07586914 38.44095703 53.07586914 37.10546875 53.59960938 C36.26113281 53.91865234 35.41679687 54.23769531 34.546875 54.56640625 C33.38430176 55.01415405 33.38430176 55.01415405 32.19824219 55.47094727 C29.62304232 56.09072271 28.48599766 55.86422414 26 55 C24.25944519 53.66731262 24.25944519 53.66731262 22.50073242 51.95239258 C21.83712204 51.31114944 21.17351166 50.66990631 20.48979187 50.00923157 C19.43330193 48.96245491 19.43330193 48.96245491 18.35546875 47.89453125 C17.62628738 47.17770676 16.89710602 46.46088226 16.14582825 45.72233582 C14.60790955 44.2039806 13.07412392 42.68142932 11.54418945 41.1550293 C9.19610943 38.8210577 6.82272179 36.51504464 4.44726562 34.20898438 C2.95669901 32.73081287 1.46771162 31.25104684 -0.01953125 29.76953125 C-0.73397903 29.0818013 -1.44842682 28.39407135 -2.18452454 27.6855011 C-6.9938918 22.80817567 -6.9938918 22.80817567 -7.02441406 18.76977539 C-6.68635742 17.85574951 -6.34830078 16.94172363 -6 16 C-5.78077881 15.29053223 -5.56155762 14.58106445 -5.33569336 13.85009766 C-5.08956299 13.21120605 -4.84343262 12.57231445 -4.58984375 11.9140625 C-4.32236328 11.21152344 -4.05488281 10.50898438 -3.77929688 9.78515625 C-3.50150391 9.07230469 -3.22371094 8.35945312 -2.9375 7.625 C-2.65583984 6.88894531 -2.37417969 6.15289062 -2.08398438 5.39453125 C-1.39433382 3.5944264 -0.69786068 1.7969379 0 0 Z " fill="#9AD0F9" transform="translate(326,137)"/>
<path d="M0 0 C-0.19335938 0.61746094 -0.38671875 1.23492187 -0.5859375 1.87109375 C-6.31433222 20.50255577 -6.10578021 36.04650974 2 54 C-3.40763827 59.06966088 -8.74738168 63.24953794 -16.1875 64.5625 C-20.14141628 63.77171674 -21.54006827 62.14324609 -24 59 C-29.1226301 46.62031059 -26.48438171 26.93315402 -21.9375 14.5625 C-17.30160348 4.65361006 -11.42839862 -1.93256845 0 0 Z " fill="#9AD1FA" transform="translate(140,77)"/>
<path d="M0 0 C3.22129213 2.29739393 5.32419632 4.56176962 7.546875 7.81640625 C5.566875 9.79640625 3.586875 11.77640625 1.546875 13.81640625 C-1.36527662 12.45437543 -3.81216734 10.85174148 -6.390625 8.94140625 C-15.45475349 2.87884162 -25.66322425 0.71539597 -36.453125 1.81640625 C-38.91983227 2.3097477 -41.08211875 2.95422216 -43.453125 3.81640625 C-44.773125 0.84640625 -46.093125 -2.12359375 -47.453125 -5.18359375 C-32.9616334 -14.84458815 -13.46492272 -8.24637463 0 0 Z " fill="#10213F" transform="translate(420.453125,76.18359375)"/>
<path d="M0 0 C4.90473901 4.11329871 9.5219528 8.38542461 14.02734375 12.9296875 C14.66112442 13.56488312 15.29490509 14.20007874 15.94789124 14.85452271 C17.94681406 16.85898716 19.94220784 18.86692214 21.9375 20.875 C23.30250133 22.24502389 24.6677336 23.61481774 26.03320312 24.984375 C29.35814211 28.32026543 32.67992353 31.65927036 36 35 C34.02 37.31 32.04 39.62 30 42 C26.66074612 40.33037306 25.11017463 39.35708077 22.60839844 36.83544922 C21.9680365 36.19493622 21.32767456 35.55442322 20.66790771 34.89450073 C19.98859192 34.20486237 19.30927612 33.515224 18.609375 32.8046875 C17.90476135 32.09724396 17.20014771 31.38980042 16.47418213 30.66091919 C14.2280461 28.40360138 11.98896991 26.13942367 9.75 23.875 C8.22702283 22.34199047 6.70359061 20.80943285 5.1796875 19.27734375 C1.44783185 15.52345427 -2.27825351 11.76391086 -6 8 C-4.44805246 4.67240077 -2.69378051 2.51419515 0 0 Z " fill="#D63429" transform="translate(303,176)"/>
<path d="M0 0 C5.14035612 3.04613696 9.45931703 7.2529511 11.375 13 C11.91328279 19.35173692 11.04917245 23.72049683 7.375 29 C3.04951011 33.6810096 -1.25321543 35.81176313 -7.5625 36.3125 C-11.48641798 36.23059659 -14.24559578 35.02764253 -17.625 33 C-17.625 32.67 -17.625 32.34 -17.625 32 C-16.88894531 31.91363281 -16.15289062 31.82726562 -15.39453125 31.73828125 C-9.02884065 30.83531103 -9.02884065 30.83531103 -3.5625 27.625 C-0.06142099 22.88160264 1.08225425 20.06217928 0.375 14 C-1.33284672 10.09735853 -3.24950239 6.87879014 -6.875 4.5625 C-10.76877116 3.76604681 -14.66626949 3.32773804 -18.625 3 C-12.47819735 -1.7125487 -7.50037998 -2.06907034 0 0 Z " fill="#94C8F1" transform="translate(218.625,207)"/>
<path d="M0 0 C5.23872588 2.43226559 9.39841957 6.79683915 12 12 C12.53789246 18.33058054 12.5599517 23.51174113 9 29 C8.67 29 8.34 29 8 29 C7.97421875 28.34773438 7.9484375 27.69546875 7.921875 27.0234375 C7.55209936 21.32553098 7.03071841 17.34893302 3 13 C-1.77637986 10.09671028 -5.52388957 9.57646566 -10.91796875 10.421875 C-14.71529029 11.47629074 -17.10078853 13.48197633 -19.08984375 16.83984375 C-20.08794125 19.20871894 -20.39959806 21.19544472 -20.625 23.75 C-20.73714844 24.94882812 -20.73714844 24.94882812 -20.8515625 26.171875 C-20.90054687 26.77515625 -20.94953125 27.3784375 -21 28 C-23 27 -23 27 -24.125 24.375 C-25.76364125 18.05452661 -25.36717179 13.53917312 -22.28125 7.86328125 C-16.60018196 -0.39851586 -9.37156475 -0.81144036 0 0 Z " fill="#94C9F2" transform="translate(294,283)"/>
<path d="M0 0 C1.66345582 0.66589654 3.31086103 1.37363516 4.9375 2.125 C6.02224609 2.56779297 6.02224609 2.56779297 7.12890625 3.01953125 C8.74783619 3.68345605 10.34574606 4.39832973 11.9375 5.125 C11.23625 5.805625 10.535 6.48625 9.8125 7.1875 C5.25899541 11.75394069 1.04065319 16.43588583 -2.0625 22.125 C-7.17615014 21.0568153 -12.13477969 19.89392524 -17.0625 18.125 C-17.57352567 12.75923043 -16.45112598 10.27606683 -13.0625 6.125 C-9.1461833 1.41459144 -6.34559002 -1.86407743 0 0 Z " fill="#D53429" transform="translate(245.0625,83.875)"/>
<path d="M0 0 C3.48464421 1.7423221 3.95499954 5.68590168 5.15234375 9.21875 C6.81388873 14.67045519 6.81388873 14.67045519 6 18 C2.65929337 22.97755716 -1.18939267 27.10523674 -7 29 C-9.53515625 28.89453125 -9.53515625 28.89453125 -12 28 C-13.36328125 25.6015625 -13.36328125 25.6015625 -14.3125 22.625 C-14.80169922 21.15933594 -14.80169922 21.15933594 -15.30078125 19.6640625 C-16 17 -16 17 -16 14 C-13.76953125 12.16796875 -13.76953125 12.16796875 -10.8125 10.1875 C-6.41921297 7.12465427 -3.13303664 4.32142984 0 0 Z " fill="#3177AC" transform="translate(422,255)"/>
<path d="M0 0 C2.51241978 1.25620989 2.68322319 2.1155716 3.6875 4.6875 C3.95949219 5.35136719 4.23148437 6.01523437 4.51171875 6.69921875 C5.17332751 9.81671924 4.86029178 11.93321911 4 15 C2.14453125 17.30859375 2.14453125 17.30859375 -0.1875 19.4375 C-3.13158918 22.20785505 -5.91364413 24.95383869 -8.5 28.0625 C-9.7375 29.5165625 -9.7375 29.5165625 -11 31 C-11.33 31 -11.66 31 -12 31 C-13.94320279 16.13809719 -13.94320279 16.13809719 -9.328125 9.75390625 C-6.44155034 6.26791931 -3.2974619 3.09627746 0 0 Z " fill="#F6C36D" transform="translate(360,303)"/>
<path d="M0 0 C2.41428978 0.96312455 4.17935944 2.23043936 6.18359375 3.87109375 C-5.16974847 15.96213332 -5.16974847 15.96213332 -12.53125 16.66796875 C-16.66990355 16.75052683 -20.71515452 16.4073349 -24.81640625 15.87109375 C-24.07390625 15.12988281 -23.33140625 14.38867188 -22.56640625 13.625 C-20.95685956 12.01316702 -19.350928 10.39768121 -17.75390625 8.7734375 C-16.42024972 7.42095921 -15.07441363 6.0804185 -13.71875 4.75 C-12.23542887 3.28495388 -10.79754508 1.77385864 -9.37890625 0.24609375 C-5.88155847 -1.63053189 -3.74855187 -0.94201043 0 0 Z " fill="#F9C46D" transform="translate(202.81640625,148.12890625)"/>
<path d="M0 0 C2.3125 2 2.3125 2 4 4 C2.67289213 7.9813236 1.01248627 8.33187507 -2.58007812 10.15625 C-3.31677734 10.5171875 -4.05347656 10.878125 -4.8125 11.25 C-5.53759766 11.62640625 -6.26269531 12.0028125 -7.00976562 12.390625 C-7.71423828 12.74125 -8.41871094 13.091875 -9.14453125 13.453125 C-9.78753174 13.77442383 -10.43053223 14.09572266 -11.09301758 14.42675781 C-13.45754118 15.13753767 -14.70775392 14.85827981 -17 14 C-18.703125 12.37109375 -18.703125 12.37109375 -20.25 10.4375 C-20.77078125 9.79683594 -21.2915625 9.15617188 -21.828125 8.49609375 C-22.21484375 8.00238281 -22.6015625 7.50867188 -23 7 C-21.12616097 6.20558928 -19.25087114 5.41460026 -17.375 4.625 C-15.80878906 3.96371094 -15.80878906 3.96371094 -14.2109375 3.2890625 C-4.31936813 -0.68200549 -4.31936813 -0.68200549 0 0 Z " fill="#3074A9" transform="translate(385,194)"/>
<path d="M0 0 C2.46800047 1.15173355 4.04783565 2.04783565 6 4 C5.70298563 9.86445395 4.23450558 14.63854383 1.9375 20 C1.51500977 21.01900391 1.51500977 21.01900391 1.08398438 22.05859375 C0.39808689 23.70939787 -0.29969829 25.35525469 -1 27 C-2.15518918 26.09515208 -3.29885406 25.1755794 -4.4375 24.25 C-5.07558594 23.73953125 -5.71367187 23.2290625 -6.37109375 22.703125 C-8.27115658 20.71648857 -8.646405 19.70352847 -9 17 C-8.28735352 14.98535156 -8.28735352 14.98535156 -7.12890625 12.890625 C-6.71962891 12.13652344 -6.31035156 11.38242188 -5.88867188 10.60546875 C-5.2322168 9.43951172 -5.2322168 9.43951172 -4.5625 8.25 C-3.9118457 7.06083984 -3.9118457 7.06083984 -3.24804688 5.84765625 C-2.17607546 3.89219191 -1.09321878 1.94364092 0 0 Z " fill="#3075AA" transform="translate(312,123)"/>
</svg>
